<svg version="1.1" id="Layer_1" xmlns="http://www.w3.org/2000/svg" xmlns:xlink="http://www.w3.org/1999/xlink" x="0px" y="0px"
    viewBox="0 0 1000 1000" style="enable-background:new 0 0 1000 1000;" xml:space="preserve">
<style type="text/css">
   .amgust0{fill:#484C4D;}
   .amgust1{fill:#DCE5F2;}
   .amgust2{fill:#A3D3E3;}
   .amgust3{opacity:0.5;fill:#666766;}
   .amgust4{opacity:0.45;fill:#5B7882;}
   .amgust5{fill:#FFFFFF;}
</style>
<g>
   <ellipse class="amgust0" cx="534.7" cy="938.7" rx="302.2" ry="40.2"/>
   <g>
       <path d="M818.8,400.6c26-28.9,39.5-65,36.7-100.3c-3.3-41.7-29.4-82-73.3-113.3h0c-5.5-3.9-11.1-7.6-16.9-11
           c-5.2-21.8-16.4-41.3-26.1-55.1c-15.3-21.7-34.6-40.8-53.1-52.4c-33.7-21-71.1-31.7-103.4-40c-18.1-4.7-33.2-3.6-46.6-2.7
           c-9.1,0.6-16.9,1.2-25.3-0.1c-36.9-5.3-75,3.2-110.3,24.7c-31.2,19-58.6,47.6-77.1,80.5c-25.2,44.7-36.1,94.7-41.7,142.8
           c-7.9,1-16.9,1.1-26.2,1.1c-27.3,0.2-61.3,0.4-85.4,27c-20.9,23-22,53.5-22.7,73.8c-2.6,75.4-5.4,153.4-3.3,230.7
           c1.2,44.9,6.9,90.8,40.8,122.1c26.2,24.2,60.2,30.4,90.9,30.4c3.2,0,6.4-0.1,9.5-0.2c2.1,20.2,4.3,40.3,6.9,60.4
           c3.2,25.7,7.3,50.7,21,73.4c20.1,33.2,58.6,53.6,98.2,53.6c6.9,0,13.7-0.6,20.6-1.9c46.8-8.6,85.3-45.6,95.9-92
           c5-22.2,3.4-44.2,1.9-63.6c-0.6-8.3-1.2-16.4-1.3-24.1c9.9-0.1,21.6-0.2,34.3-0.4c-8.2,45.4,6.7,93.7,40.9,123.2
           c20.7,17.9,48.3,27.7,77,27.7c3.9,0,7.7-0.2,11.6-0.5c31.2-2.9,58.3-16.9,76.4-39.6c19.9-24.9,26.4-55.1,31.4-83.8
           c22.3-128.8,28.8-260.2,19.3-390.5L818.8,400.6z"/>
       <path class="amgust1" d="M766,494.7c-0.2-17.8-0.8-35.5-1.7-53.3c-20.5,10.4-44.4,18.5-72.9,24.9c-26.9,6.1-51.6,9.1-74.3,9.1
           c-21.2,0-40.7-2.6-58.8-7.9c-57-16.5-104.4-61.6-123.8-117.6c-15-43.6-12.9-93.1,6-136c20.5-46.6,71.3-60.2,101.7-68.3
           c47-12.5,96.2-13,142.3-2.2c-9.1-11-19.3-20.5-28.7-26.3C629,100.4,596.6,91.2,568.4,84c-9.1-2.3-17.7-1.8-28.5-1
           c-10.8,0.7-23,1.6-37.4-0.5c-54.7-7.9-105.4,34.2-129.3,76.7c-1.2,2.2-2.4,4.4-3.6,6.7c-26.3,50.9-32.1,111.1-35.7,168.7
           C324,493.4,329,654,348.8,812c2.5,20.1,5.3,37.7,13.2,50.8c11.2,18.5,36.8,29.3,59.5,25.1c23.8-4.4,45.1-24.7,50.4-48.4
           c3.1-13.8,1.9-29.7,0.7-46.6c-1.5-19.3-3.1-41.2,1.8-63.2c2.8-12.7,13.9-21.8,26.9-22.3l0.9,0c0.4,0,0.8,0,1.1,0
           c23.1,0.1,137.8-1.4,193.4-5.9c0,0-28.4,54-74.7,60.9c-9.8,28.6-2.4,63.3,18.8,81.6c11.6,10.1,28.8,15.1,45.9,13.5
           c15.3-1.4,28.8-8.1,36.9-18.3c11.5-14.4,15.9-35.5,19.7-57.8C759.8,686.7,767.3,590.7,766,494.7z M273.6,393.4
           c0.8-20.6,1.8-41.2,3.1-61.7c-7.1,0.4-14.1,0.4-20.9,0.5c-22.5,0.2-36.7,0.8-43.4,8.3c-6.8,7.5-7.4,25.4-7.8,37.3
           c-0.2,6.3-0.4,12.6-0.7,19c-2.4,68.6-4.5,139.1-2.7,208.2c0.8,32.4,4.1,64.7,22.4,81.6c13.6,12.5,34.2,15.8,56.4,15.1
           C271.8,599.1,269.7,496,273.6,393.4z"/>
       <path class="amgust2" d="M798,317.8c-2.7,20-14.8,40.5-33.6,55.9c-20.1,16.5-47.3,28.2-85.6,36.8c-42.9,9.7-76.2,10.3-104.7,2.1
           c-39.4-11.4-72.2-42.6-85.6-81.3c-10.4-30.1-8.8-64.4,4.3-94.2c1.3-3.1,3-6.2,5.9-9.4c7.2-8.2,22-17,58.2-26.6
           c20.1-5.4,40.7-8,61.1-8c47.2,0,93.5,14,130.9,40.7c40.4,28.8,48.3,56.9,49.4,71.2C798.7,309.1,798.6,313.4,798,317.8z"/>
       <path class="amgust3" d="M280,701.6c-22.3,0.6-42.9-2.6-56.4-15.1c-18.2-16.9-21.5-49.2-22.4-81.6c-1.8-69.1,0.3-139.6,2.7-208.2
           c20.7-8.6,45.7-7.3,69.7-3.3C269.7,496,271.8,599.1,280,701.6z M766,494.7c-16,59.2-57.8,111.5-114.1,135.9
           C578.1,662.5,484,642,433,579.9c-32.7-39.8-46.6-91.5-55.5-142.2c-15.8-89.6-18.4-181.5-7.9-271.9
           c-26.3,50.9-32.1,111.1-35.7,168.7C324,493.4,329,654,348.8,812c2.5,20.1,5.3,37.7,13.2,50.8c11.2,18.5,36.8,29.3,59.5,25.1
           c23.8-4.4,45.1-24.7,50.4-48.4c3.1-13.8,1.9-29.7,0.7-46.6c-1.5-19.3-3.1-41.2,1.8-63.2c2.8-12.7,13.9-21.8,26.9-22.3l0.9,0
           c0.4,0,0.8,0,1.1,0c23.1,0.1,137.8-1.4,193.4-5.9c0,0-28.4,54-74.7,60.9c-9.8,28.6-2.4,63.3,18.8,81.6
           c11.6,10.1,28.8,15.1,45.9,13.5c15.3-1.4,28.8-8.1,36.9-18.3c11.5-14.4,15.9-35.5,19.7-57.8C759.8,686.7,767.3,590.7,766,494.7z"
           />
       <path class="amgust4" d="M798,317.8c-2.7,20-14.8,40.5-33.6,55.9c-20.1,16.5-47.3,28.2-85.6,36.8c-42.9,9.7-76.2,10.3-104.7,2.1
           c-39.4-11.4-72.2-42.6-85.6-81.3c-10.4-30.1-8.8-64.4,4.3-94.2c1.3-3.1,3-6.2,5.9-9.4c7.6,11.3,13.2,41,18.5,49.8
           c11.1,18.3,26.8,34,45.1,45.1c38.6,23.5,86.2,28.6,131,22.9C729.2,340.9,763.8,329.9,798,317.8z"/>
       <path class="amgust5" d="M616.9,268.4c-7.3-2.7-13.7-9.1-13.9-16.8c-0.3-11.3,11.5-18.7,22.2-22.3c30-10.1,63.7-9,93,3.1
           c8.4,3.4,17.4,9.2,18.2,18.2c0.9,10.1-9.5,18-19.6,19c-10,1.1-19.9-2.5-29.9-4.1C663.8,261.7,640.6,277,616.9,268.4z"/>
   </g>
</g>
</svg>